<?xml version="1.0" encoding="UTF-8" standalone="no"?>
<!-- Created with Inkscape (http://www.inkscape.org/) -->

<svg
   xmlns:dc="http://purl.org/dc/elements/1.1/"
   xmlns:cc="http://creativecommons.org/ns#"
   xmlns:rdf="http://www.w3.org/1999/02/22-rdf-syntax-ns#"
   xmlns:svg="http://www.w3.org/2000/svg"
   xmlns="http://www.w3.org/2000/svg"
   xmlns:sodipodi="http://sodipodi.sourceforge.net/DTD/sodipodi-0.dtd"
   xmlns:inkscape="http://www.inkscape.org/namespaces/inkscape"
   width="100"
   height="100"
   viewBox="0 0 26.458333 26.458334"
   version="1.1"
   id="svg8"
   inkscape:version="0.92.1 r15371"
   sodipodi:docname="tiles2.svg"
   inkscape:export-filename="C:\Users\annac\Documents\GitHub\Planning-and-Reasoning\Script_python\images\tile_6.png"
   inkscape:export-xdpi="96"
   inkscape:export-ydpi="96">
  <defs
     id="defs2" />
  <sodipodi:namedview
     id="base"
     pagecolor="#ffffff"
     bordercolor="#666666"
     borderopacity="1.0"
     inkscape:pageopacity="0.0"
     inkscape:pageshadow="2"
     inkscape:zoom="2.8"
     inkscape:cx="38.704926"
     inkscape:cy="34.669463"
     inkscape:document-units="mm"
     inkscape:current-layer="g4851"
     showgrid="false"
     inkscape:window-width="1920"
     inkscape:window-height="1001"
     inkscape:window-x="-9"
     inkscape:window-y="-9"
     inkscape:window-maximized="1"
     units="px" />
  <metadata
     id="metadata5">
    <rdf:RDF>
      <cc:Work
         rdf:about="">
        <dc:format>image/svg+xml</dc:format>
        <dc:type
           rdf:resource="http://purl.org/dc/dcmitype/StillImage" />
        <dc:title></dc:title>
      </cc:Work>
    </rdf:RDF>
  </metadata>
  <g
     inkscape:groupmode="layer"
     id="layer2"
     inkscape:label="sfondo"
     style="display:none"
     transform="translate(0,-26.458333)">
    <rect
       transform="scale(-1)"
       style="display:inline;fill:#ffe680;stroke-width:0.13089237"
       id="rect3698"
       width="26.411177"
       height="26.411175"
       x="-26.467632"
       y="-52.864346" />
  </g>
  <g
     inkscape:label="C"
     inkscape:groupmode="layer"
     id="layer1"
     transform="translate(0,-270.54165)"
     style="display:none;opacity:1">
    <g
       id="g4558"
       style="fill:#a76d52;fill-opacity:1"
       transform="matrix(0.45089455,0,0,0.49910883,1.2992529,148.71751)">
      <rect
         y="249.05692"
         x="0"
         height="7.5153151"
         width="52.916668"
         id="rect3704"
         style="fill:#a76d52;fill-opacity:1;stroke-width:0.20759678" />
      <rect
         y="266.784"
         x="0"
         height="7.5153151"
         width="52.916668"
         id="rect3704-9"
         style="fill:#a76d52;fill-opacity:1;stroke-width:0.20759675" />
      <rect
         y="284.51108"
         x="0"
         height="7.5153151"
         width="52.916668"
         id="rect3704-9-6"
         style="fill:#a76d52;fill-opacity:1;stroke-width:0.20759675" />
    </g>
    <g
       id="g3702"
       transform="matrix(0.49910883,0,0,0.49910883,-0.33013769,148.71751)"
       style="fill:#a2a2a2;fill-opacity:1">
      <rect
         style="fill:#a2a2a2;fill-opacity:1;stroke-width:0.18394044"
         y="244.08333"
         x="10.205358"
         height="52.916664"
         width="7.937501"
         id="rect10" />
      <rect
         style="fill:#a2a2a2;fill-opacity:1;stroke-width:0.18394044"
         y="244.17781"
         x="36.191219"
         height="52.916668"
         width="7.937501"
         id="rect10-2" />
    </g>
  </g>
  <g
     style="display:none;opacity:1"
     transform="translate(0,-270.54165)"
     id="g4831"
     inkscape:groupmode="layer"
     inkscape:label="3">
    <g
       transform="matrix(0,0.45089455,-0.49910883,0,148.2589,271.81732)"
       style="fill:#a76d52;fill-opacity:1"
       id="g4823">
      <rect
         style="fill:#a76d52;fill-opacity:1;stroke-width:0.20759678"
         id="rect4817"
         width="52.916668"
         height="7.5153151"
         x="0"
         y="249.05692" />
      <rect
         style="fill:#a76d52;fill-opacity:1;stroke-width:0.20759675"
         id="rect4819"
         width="52.916668"
         height="7.5153151"
         x="0"
         y="266.784" />
      <rect
         style="fill:#a76d52;fill-opacity:1;stroke-width:0.20759675"
         id="rect4821"
         width="52.916668"
         height="7.5153151"
         x="0"
         y="284.51108" />
    </g>
    <g
       style="fill:#a2a2a2;fill-opacity:1"
       transform="matrix(0,0.49910883,-0.49910883,0,148.28248,270.21151)"
       id="g4829">
      <rect
         id="rect4825"
         width="7.937501"
         height="52.916664"
         x="10.205358"
         y="244.08333"
         style="fill:#a2a2a2;fill-opacity:1;stroke-width:0.18394044" />
      <rect
         id="rect4827"
         width="7.937501"
         height="52.916668"
         x="36.191219"
         y="244.17781"
         style="fill:#a2a2a2;fill-opacity:1;stroke-width:0.18394044" />
    </g>
  </g>
  <g
     inkscape:groupmode="layer"
     id="layer4"
     inkscape:label="4"
     style="display:none" />
  <g
     style="display:none"
     inkscape:label="9"
     inkscape:groupmode="layer"
     id="g4603"
     transform="translate(0,-270.54165)">
    <rect
       style="fill:#a76d52;fill-opacity:1;stroke-width:0.12599351"
       id="rect4587"
       width="26.411177"
       height="5.5463471"
       x="271.08496"
       y="-56.198452"
       transform="rotate(90)" />
    <path
       style="fill:#a76d52;fill-opacity:1;stroke-width:0.12599349"
       d="m -15.633045,277.66431 -23.923737,8.95239 -1.435499,-5.35736 24.982071,-4.71905 z"
       id="rect4589"
       inkscape:connector-curvature="0"
       sodipodi:nodetypes="ccccc" />
    <path
       style="fill:#a76d52;fill-opacity:1;stroke-width:0.12599349"
       d="m -15.26335,277.28714 -17.088024,20.26303 -3.921862,-3.92186 20.263026,-17.08802 z"
       id="rect4591"
       inkscape:connector-curvature="0"
       sodipodi:nodetypes="ccccc" />
    <path
       style="display:inline;fill:#a76d52;fill-opacity:1;stroke-width:0.12599349"
       d="m -15.26335,277.28714 -4.208871,25.19476 -5.357359,-1.4355 8.404218,-23.99463 z"
       id="rect4589-9"
       inkscape:connector-curvature="0"
       sodipodi:nodetypes="ccccc" />
    <rect
       style="fill:#a76d52;fill-opacity:1;stroke-width:0.09700812"
       id="rect3704-4"
       width="23.151133"
       height="3.7509601"
       x="-70.672691"
       y="267.65475"
       transform="rotate(-15)" />
    <rect
       style="fill:#a76d52;fill-opacity:1;stroke-width:0.09700811"
       id="rect3704-9-7"
       width="23.151133"
       height="3.7509601"
       x="-198.13339"
       y="208.03503"
       transform="rotate(-45)" />
    <rect
       style="fill:#a76d52;fill-opacity:1;stroke-width:0.09700811"
       id="rect3704-9-6-4"
       width="23.151133"
       height="3.7509601"
       x="-280.58319"
       y="92.169968"
       transform="rotate(-75)" />
    <path
       inkscape:connector-curvature="0"
       style="fill:#a2a2a2;fill-opacity:1;stroke-width:0.53097552"
       d="m 17.733284,270.54014 a 8.7312497,8.7312497 0 0 0 8.731251,8.7266 8.7312497,8.7312497 0 0 0 0.0031,0 v -3.97754 a 4.7492708,4.7492708 0 0 1 -0.02842,0.001 4.7492708,4.7492708 0 0 1 -4.749064,-4.74959 4.7492708,4.7492708 0 0 1 0,-5.1e-4 z"
       id="path4617" />
    <path
       inkscape:connector-curvature="0"
       style="display:inline;opacity:1;fill:#a2a2a2;fill-opacity:1;stroke-width:0.53008872"
       d="m 4.7888549,270.53648 a 21.709062,21.709062 0 0 0 21.6710291,21.68188 v -3.94188 A 17.740312,17.740312 0 0 1 8.7291831,270.537 a 17.740312,17.740312 0 0 1 0,-5.2e-4 z"
       id="path4675-2" />
  </g>
  <g
     transform="translate(0,-270.54165)"
     id="g4851"
     inkscape:groupmode="layer"
     inkscape:label="6"
     style="display:inline">
    <rect
       transform="rotate(165)"
       y="-287.37701"
       x="50.621902"
       height="3.7509601"
       width="23.151133"
       id="rect4841"
       style="fill:#a76d52;fill-opacity:1;stroke-width:0.09700812" />
    <rect
       transform="rotate(135)"
       y="-211.98929"
       x="184.4267"
       height="3.7509601"
       width="23.151133"
       id="rect4843"
       style="fill:#a76d52;fill-opacity:1;stroke-width:0.09700811" />
    <rect
       transform="rotate(105)"
       y="-80.30172"
       x="260.73572"
       height="3.7509601"
       width="23.151133"
       id="rect4845"
       style="fill:#a76d52;fill-opacity:1;stroke-width:0.09700811" />
    <path
       id="path4847"
       d="m 8.757932,296.97274 a 8.7312497,8.7312497 0 0 0 -8.731251,-8.7266 8.7312497,8.7312497 0 0 0 -0.0031,0 l 0,3.97754 a 4.7492708,4.7492708 0 0 1 0.02842,-10e-4 4.7492708,4.7492708 0 0 1 4.749064,4.74959 4.7492708,4.7492708 0 0 1 0,5.1e-4 z"
       style="fill:#a2a2a2;fill-opacity:1;stroke-width:0.53097552"
       inkscape:connector-curvature="0" />
    <path
       id="path4849"
       d="M 21.702361,296.9764 A 21.709062,21.709062 0 0 0 0.031332,275.29452 v 3.94188 a 17.740312,17.740312 0 0 1 17.730701,17.73948 17.740312,17.740312 0 0 1 0,5.2e-4 z"
       style="display:inline;opacity:1;fill:#a2a2a2;fill-opacity:1;stroke-width:0.53008872"
       inkscape:connector-curvature="0" />
  </g>
  <g
     inkscape:groupmode="layer"
     id="layer3"
     inkscape:label="cerchi"
     style="display:none">
    <circle
       style="fill:#ff5555;fill-opacity:0.34534535;stroke-width:0.53097552"
       id="path4617-4"
       cx="26.46447"
       cy="-0.0061305864"
       r="8.7312498" />
    <circle
       style="fill:#ff5555;fill-opacity:0.34534535;stroke-width:0.28881848"
       id="path4617-3-7"
       cx="26.4394"
       cy="-0.00097216218"
       r="4.7492709" />
    <circle
       style="display:inline;opacity:0.30800003;fill:#ff0505;fill-opacity:1;stroke-width:0.53008872"
       id="path4675-2-0"
       cx="26.496172"
       cy="-0.031374216"
       r="21.709063" />
    <circle
       style="display:inline;opacity:0.30800003;fill:#ff0505;fill-opacity:1;stroke-width:0.43318045"
       id="path4675-4"
       cx="26.469648"
       cy="-0.0048506251"
       r="17.740313" />
  </g>
</svg>
